# xmcd
#
# Track frame offsets: 
#        150
#        17779
#        34550
#        52416
#        65755
#        83239
#        104172
#        120260
#        137370
#        155379
#        176678
#        191007
#        207166
#        229328
#
# Disc length: 3355 seconds
#
# Revision: 0
# Processed by: cddbd v1.5.2PL0 Copyright (c) Steve Scherf et al.
# Submitted via: ExactAudioCopy v0.99pb4
#
DISCID=c40d190e
DTITLE=Gary Allan - Get off the pain
DYEAR=2010
DGENRE=Country
TTITLE0=Get off the Pain
TTITLE1=I think I ve had enoug
TTITLE2=Today
TTITLE3=That aint gonna fly
TTITLE4=Kiss me when I m down
TTITLE5=We ll fly by night
TTITLE6=When you give yourself away
TTITLE7=Along the way
TTITLE8=She gets me
TTITLE9=No regrets
TTITLE10=Long summer days
TTITLE11=Night where I need to be (live)
TTITLE12=Best I ever had (live)
TTITLE13=Watching airplanes (live)
EXTD=
EXTT0=
EXTT1=
EXTT2=
EXTT3=
EXTT4=
EXTT5=
EXTT6=
EXTT7=
EXTT8=
EXTT9=
EXTT10=
EXTT11=
EXTT12=
EXTT13=
PLAYORDER=
